<svg viewBox="-2.815 -2.815 135 135" xmlns="http://www.w3.org/2000/svg" height="135" width="135" id="Official-Building-2--Streamline-Ultimate.svg"><desc>Official Building 2 Streamline Icon: https://streamlinehq.com</desc><path d="m8.085625 126.67479166666666 4.851375 -19.518698750000002a2.6952083333333334 2.6952083333333334 0 0 1 2.6413041666666666 -2.0429679166666666h98.21339166666667a2.6952083333333334 2.6952083333333334 0 0 1 2.6143520833333334 2.0429679166666666L121.28437500000001 126.67479166666666" fill="none" stroke="#ffffff" stroke-linecap="round" stroke-linejoin="round" stroke-width="5.63"></path><path d="m18.866458333333334 56.599375 0 48.51375" fill="none" stroke="#ffffff" stroke-linecap="round" stroke-linejoin="round" stroke-width="5.63"></path><path d="m29.647291666666668 56.599375 0 48.51375" fill="none" stroke="#ffffff" stroke-linecap="round" stroke-linejoin="round" stroke-width="5.63"></path><path d="m45.81854166666667 56.599375 0 48.51375" fill="none" stroke="#ffffff" stroke-linecap="round" stroke-linejoin="round" stroke-width="5.63"></path><path d="m56.599375 56.599375 0 48.51375" fill="none" stroke="#ffffff" stroke-linecap="round" stroke-linejoin="round" stroke-width="5.63"></path><path d="m72.770625 56.599375 0 48.51375" fill="none" stroke="#ffffff" stroke-linecap="round" stroke-linejoin="round" stroke-width="5.63"></path><path d="m83.55145833333333 56.599375 0 48.51375" fill="none" stroke="#ffffff" stroke-linecap="round" stroke-linejoin="round" stroke-width="5.63"></path><path d="m99.72270833333334 56.599375 0 48.51375" fill="none" stroke="#ffffff" stroke-linecap="round" stroke-linejoin="round" stroke-width="5.63"></path><path d="m110.50354166666668 56.599375 0 48.51375" fill="none" stroke="#ffffff" stroke-linecap="round" stroke-linejoin="round" stroke-width="5.63"></path><path d="M113.19875 40.428125c0 -14.888330833333335 -10.780833333333334 -37.73291666666667 -48.51375 -37.73291666666667s-48.51375 22.844585833333337 -48.51375 37.73291666666667" fill="none" stroke="#ffffff" stroke-linecap="round" stroke-linejoin="round" stroke-width="5.63"></path><path d="M120.10387374999999 43.97501916666666a2.6952083333333334 2.6952083333333334 0 0 0 -2.5604479166666665 -3.546894166666667H11.826574166666667a2.6952083333333334 2.6952083333333334 0 0 0 -2.5604479166666665 3.546894166666667l3.595407916666667 10.780833333333334a2.6952083333333334 2.6952083333333334 0 0 0 2.5550574999999998 1.8435225000000002h98.53681666666668a2.6952083333333334 2.6952083333333334 0 0 0 2.5550574999999998 -1.8435225000000002Z" fill="none" stroke="#ffffff" stroke-linecap="round" stroke-linejoin="round" stroke-width="5.63"></path><path d="m2.6952083333333334 126.67479166666666 123.97958333333334 0" fill="none" stroke="#ffffff" stroke-linecap="round" stroke-linejoin="round" stroke-width="5.63"></path><path d="m10.780833333333334 115.89395833333333 107.80833333333334 0" fill="none" stroke="#ffffff" stroke-linecap="round" stroke-linejoin="round" stroke-width="5.63"></path></svg>