<svg viewBox="-1.405 -1.405 135 135" xmlns="http://www.w3.org/2000/svg" height="135" width="135" id="Car-Garage-2--Streamline-Ultimate.svg"><desc>Car Garage 2 Streamline Icon: https://streamlinehq.com</desc><path d="M2.7539583333333333 59.61218208333334 62.38266416666667 5.17193375a5.507916666666667 5.507916666666667 0 0 1 7.424671666666667 0L129.43604166666665 59.61218208333334" fill="none" stroke="#ffffff" stroke-linecap="round" stroke-linejoin="round" stroke-width="2.81"></path><path d="M35.80145833333333 117.44530708333333v8.261875a2.7539583333333333 2.7539583333333333 0 0 1 -2.7539583333333333 2.7539583333333333H22.031666666666666a2.7539583333333333 2.7539583333333333 0 0 1 -2.7539583333333333 -2.7539583333333333v-8.261875" fill="none" stroke="#ffffff" stroke-linecap="round" stroke-linejoin="round" stroke-width="2.81"></path><path d="M112.91229166666666 117.44530708333333v8.261875a2.7539583333333333 2.7539583333333333 0 0 1 -2.7539583333333333 2.7539583333333333h-11.015833333333333a2.7539583333333333 2.7539583333333333 0 0 1 -2.7539583333333333 -2.7539583333333333v-8.261875" fill="none" stroke="#ffffff" stroke-linecap="round" stroke-linejoin="round" stroke-width="2.81"></path><path d="M115.66624999999999 117.44530708333333a2.7539583333333333 2.7539583333333333 0 0 0 2.7539583333333333 -2.7539583333333333V96.55377916666667a2.7539583333333333 2.7539583333333333 0 0 0 -0.8041558333333333 -1.9498024999999999L107.404375 84.39780708333333h-82.61875l-10.2116775 10.206169583333333a2.7539583333333333 2.7539583333333333 0 0 0 -0.8041558333333333 1.9498024999999999v18.137569583333335a2.7539583333333333 2.7539583333333333 0 0 0 2.7539583333333333 2.7539583333333333Z" fill="none" stroke="#ffffff" stroke-linecap="round" stroke-linejoin="round" stroke-width="2.81"></path><path d="m107.404375 84.39780708333333 -10.321835833333333 -25.810097499999998a2.7539583333333333 2.7539583333333333 0 0 0 -2.56118125 -1.7294858333333334H37.66864208333333a2.7539583333333333 2.7539583333333333 0 0 0 -2.56118125 1.7294858333333334L24.785625 84.39780708333333" fill="none" stroke="#ffffff" stroke-linecap="round" stroke-linejoin="round" stroke-width="2.81"></path><path d="m13.769791666666666 106.42947375 24.785625 0" fill="none" stroke="#ffffff" stroke-linecap="round" stroke-linejoin="round" stroke-width="2.81"></path><path d="m93.63458333333332 106.42947375 24.785625 0" fill="none" stroke="#ffffff" stroke-linecap="round" stroke-linejoin="round" stroke-width="2.81"></path></svg>