<svg viewBox="-1.405 -1.405 135 135" xmlns="http://www.w3.org/2000/svg" height="135" width="135" id="Shopping-Cart-Empty-1--Streamline-Ultimate.svg"><desc>Shopping Cart Empty 1 Streamline Icon: https://streamlinehq.com</desc><path d="M20.41784708333333 30.293541666666666h102.65655083333334a5.507916666666667 5.507916666666667 0 0 1 5.315139583333333 6.95649875l-11.307752916666667 41.45258083333333a16.52375 16.52375 0 0 1 -15.939910833333334 12.178003749999998H33.17418208333333" fill="none" stroke="#ffffff" stroke-linecap="round" stroke-linejoin="round" stroke-width="2.81"></path><path d="M3.6021775000000003 2.7539583333333333h2.0819925a11.015833333333333 11.015833333333333 0 0 1 10.778992916666667 8.746571666666666L34.81003333333334 98.65780333333332A11.015833333333333 11.015833333333333 0 0 0 45.589026249999996 107.404375h62.66356791666667" fill="none" stroke="#ffffff" stroke-linecap="round" stroke-linejoin="round" stroke-width="2.81"></path><path d="M33.895719166666666 121.17416666666666a8.261875 8.261875 0 1 0 16.52375 0 8.261875 8.261875 0 1 0 -16.52375 0Z" fill="none" stroke="#ffffff" stroke-linecap="round" stroke-linejoin="round" stroke-width="2.81"></path><path d="M88.97488583333333 121.17416666666666a8.261875 8.261875 0 1 0 16.52375 0 8.261875 8.261875 0 1 0 -16.52375 0Z" fill="none" stroke="#ffffff" stroke-linecap="round" stroke-linejoin="round" stroke-width="2.81"></path></svg>