<svg xmlns="http://www.w3.org/2000/svg" viewBox="-2.815 -2.815 135 135" height="135" width="135" id="Factory-Building-1--Streamline-Ultimate.svg"><desc>Factory Building 1 Streamline Icon: https://streamlinehq.com</desc><defs></defs><path d="m18.19265625 82.40329958333334 5.455101666666667 -57.30012916666667 25.038485416666663 0 4.5926350000000005 48.217277083333336" fill="none" stroke="#ffffff" stroke-linecap="round" stroke-linejoin="round" stroke-width="5.63"></path><path d="M5.390416666666667 123.93106958333334h118.58916666666667V62.57195666666667a5.83782125 5.83782125 0 0 0 -7.309405000000001 -5.654547083333333L9.341592083333333 84.69422666666667a5.2718275 5.2718275 0 0 0 -3.9511754166666666 5.104724583333334Z" fill="none" stroke="#ffffff" stroke-linecap="round" stroke-linejoin="round" stroke-width="5.63"></path><path d="m105.5335775 123.92567916666667 -26.353747083333335 0 0 0 0 -23.59924416666667a5.390416666666667 5.390416666666667 0 0 1 5.390416666666667 -5.390416666666667l15.57291375 0a5.390416666666667 5.390416666666667 0 0 1 5.390416666666667 5.390416666666667l0 23.59924416666667 0 0Z" fill="none" stroke="#ffffff" stroke-linecap="round" stroke-linejoin="round" stroke-width="5.63"></path><path d="m21.561666666666667 48.56226375000001 26.952083333333334 0" fill="none" stroke="#ffffff" stroke-linecap="round" stroke-linejoin="round" stroke-width="5.63"></path><path d="M110.50354166666668 5.4389304166666665a13.416747083333334 13.416747083333334 0 0 0 -11.632519166666667 6.786534583333333 8.085625 8.085625 0 1 0 0 13.384404583333334A13.476041666666667 13.476041666666667 0 1 0 110.50354166666668 5.4389304166666665Z" fill="none" stroke="#ffffff" stroke-linecap="round" stroke-linejoin="round" stroke-width="5.63"></path><path d="M59.294583333333335 18.914972083333332a8.085625 8.085625 0 1 0 16.17125 0 8.085625 8.085625 0 1 0 -16.17125 0" fill="none" stroke="#ffffff" stroke-linecap="round" stroke-linejoin="round" stroke-width="5.63"></path><path d="m26.952083333333334 97.07601375 5.390416666666667 0" fill="none" stroke="#ffffff" stroke-linecap="round" stroke-linejoin="round" stroke-width="5.63"></path><path d="m26.952083333333334 107.85684708333334 5.390416666666667 0" fill="none" stroke="#ffffff" stroke-linecap="round" stroke-linejoin="round" stroke-width="5.63"></path><path d="m53.90416666666667 97.07601375 5.390416666666667 0" fill="none" stroke="#ffffff" stroke-linecap="round" stroke-linejoin="round" stroke-width="5.63"></path><path d="m53.90416666666667 107.85684708333334 5.390416666666667 0" fill="none" stroke="#ffffff" stroke-linecap="round" stroke-linejoin="round" stroke-width="5.63"></path></svg>