<svg xmlns="http://www.w3.org/2000/svg" viewBox="-1.405 -1.405 135 135" height="135" width="135" id="Food-Delivery-Food-Bill-History-Ticket--Streamline-Ultimate.svg"><desc>Food Delivery Food Bill History Ticket Streamline Icon: https://streamlinehq.com</desc><defs></defs><path d="M35.118476666666666 51.14100625a11.506037916666667 14.634534583333334 0 1 0 23.012075833333334 0 11.506037916666667 14.634534583333334 0 1 0 -23.012075833333334 0" fill="none" stroke="#ffffff" stroke-linecap="round" stroke-linejoin="round" stroke-width="2.81"></path><path d="m46.62451458333333 65.77554083333334 0 29.907987499999997" fill="none" stroke="#ffffff" stroke-linecap="round" stroke-linejoin="round" stroke-width="2.81"></path><path d="m84.62363166666667 36.50647166666667 0 59.177056666666665" fill="none" stroke="#ffffff" stroke-linecap="round" stroke-linejoin="round" stroke-width="2.81"></path><path d="M72.18124791666666 36.50647166666667v20.483942083333332c0 4.747824166666667 5.56850375 8.59235 12.44238375 8.59235h0c6.87388 0 12.44238375 -3.8555416666666664 12.44238375 -8.59235V36.50647166666667" fill="none" stroke="#ffffff" stroke-linecap="round" stroke-linejoin="round" stroke-width="2.81"></path><path d="m115.83699541666665 118.26047875 0 -104.3309575 -12.4589075 -11.015833333333333 -12.4589075 11.015833333333333 -12.44238375 -11.015833333333333 -12.436875833333334 11.015833333333333 -12.436875833333334 -11.015833333333333 -12.420352083333333 11.015833333333333 -12.403828333333331 -11.015833333333333 -12.425859999999998 11.015833333333333 0 104.3309575 12.425859999999998 11.015833333333333 12.403828333333331 -11.015833333333333 12.420352083333333 11.015833333333333 12.436875833333334 -11.015833333333333 12.436875833333334 11.015833333333333 12.44238375 -11.015833333333333 12.4589075 11.015833333333333 12.4589075 -11.015833333333333z" fill="none" stroke="#ffffff" stroke-linecap="round" stroke-linejoin="round" stroke-width="2.81"></path></svg>