<svg viewBox="-1.405 -1.405 135 135" xmlns="http://www.w3.org/2000/svg" height="135" width="135" id="House-Garage--Streamline-Ultimate.svg"><desc>House Garage Streamline Icon: https://streamlinehq.com</desc><path d="m2.7539583333333333 118.29352625 126.68208333333334 0" fill="none" stroke="#ffffff" stroke-linecap="round" stroke-linejoin="round" stroke-width="2.81"></path><path d="m13.769791666666666 52.19852625 0 66.095" fill="none" stroke="#ffffff" stroke-linecap="round" stroke-linejoin="round" stroke-width="2.81"></path><path d="m118.42020833333333 118.29352625 0 -66.095" fill="none" stroke="#ffffff" stroke-linecap="round" stroke-linejoin="round" stroke-width="2.81"></path><path d="M129.43604166666665 42.98928958333333a2.7539583333333333 2.7539583333333333 0 0 0 -1.652375 -2.5226258333333336l-60.58708333333333 -26.34436541666667a2.7539583333333333 2.7539583333333333 0 0 0 -2.2031666666666667 0L4.406333333333333 40.46666375a2.7539583333333333 2.7539583333333333 0 0 0 -1.652375 2.5226258333333336v6.455278333333333a2.7539583333333333 2.7539583333333333 0 0 0 2.7539583333333333 2.7539583333333333h121.17416666666666a2.7539583333333333 2.7539583333333333 0 0 0 2.7539583333333333 -2.7539583333333333Z" fill="none" stroke="#ffffff" stroke-linecap="round" stroke-linejoin="round" stroke-width="2.81"></path><path d="M27.539583333333333 118.29352625a2.7539583333333333 2.7539583333333333 0 0 1 -2.7539583333333333 -2.7539583333333333v-49.57125a2.7539583333333333 2.7539583333333333 0 0 1 2.7539583333333333 -2.7539583333333333h77.11083333333333a2.7539583333333333 2.7539583333333333 0 0 1 2.7539583333333333 2.7539583333333333v49.57125a2.7539583333333333 2.7539583333333333 0 0 1 -2.7539583333333333 2.7539583333333333" fill="none" stroke="#ffffff" stroke-linecap="round" stroke-linejoin="round" stroke-width="2.81"></path><path d="m35.80145833333333 79.73810958333334 60.58708333333333 0" fill="none" stroke="#ffffff" stroke-linecap="round" stroke-linejoin="round" stroke-width="2.81"></path><path d="m35.80145833333333 90.75394291666667 60.58708333333333 0" fill="none" stroke="#ffffff" stroke-linecap="round" stroke-linejoin="round" stroke-width="2.81"></path><path d="m35.80145833333333 101.76977625 60.58708333333333 0" fill="none" stroke="#ffffff" stroke-linecap="round" stroke-linejoin="round" stroke-width="2.81"></path></svg>