<svg xmlns="http://www.w3.org/2000/svg" viewBox="-2.815 -2.815 135 135" height="135" width="135" id="Medical-Hospital-2--Streamline-Ultimate.svg"><desc>Medical Hospital 2 Streamline Icon: https://streamlinehq.com</desc><g id="Medical-Hospital-2--Streamline-Ultimate.svg"><path d="M120.04457916666667 23.87954583333333 99.93832499999999 16.17125" fill="none" stroke="#ffffff" stroke-linecap="round" stroke-linejoin="round" stroke-width="5.63"></path><path d="m108.8325125 42.260866666666665 -16.063441666666666 -14.3924125" fill="none" stroke="#ffffff" stroke-linecap="round" stroke-linejoin="round" stroke-width="5.63"></path><path d="M9.325420833333334 23.87954583333333 29.431675000000002 16.17125" fill="none" stroke="#ffffff" stroke-linecap="round" stroke-linejoin="round" stroke-width="5.63"></path><path d="m20.5374875 42.260866666666665 16.063441666666666 -14.3924125" fill="none" stroke="#ffffff" stroke-linecap="round" stroke-linejoin="round" stroke-width="5.63"></path><path d="M46.950529166666676 59.294583333333335a59.833625 59.833625 0 0 0 10.780833333333334 2.263975" fill="none" stroke="#ffffff" stroke-linecap="round" stroke-linejoin="round" stroke-width="5.63"></path><path d="M105.38264583333334 45.81854166666667A59.294583333333335 59.294583333333335 0 0 0 123.97958333333334 5.390416666666667a2.8030166666666667 2.8030166666666667 0 0 0 -0.7546583333333334 -1.94055 2.6952083333333334 2.6952083333333334 0 0 0 -1.9944541666666666 -0.7546583333333334h-21.992900000000002a10.780833333333334 10.780833333333334 0 0 0 -9.379325 5.390416666666667 74.8728875 74.8728875 0 0 1 -15.847825 16.925908333333336" fill="none" stroke="#ffffff" stroke-linecap="round" stroke-linejoin="round" stroke-width="5.63"></path><path d="M23.610025 45.4412125A59.294583333333335 59.294583333333335 0 0 1 5.390416666666667 5.390416666666667a2.8030166666666667 2.8030166666666667 0 0 1 0.8085625 -1.832741666666667 2.6952083333333334 2.6952083333333334 0 0 1 1.94055 -0.8624666666666667h21.992900000000002a10.780833333333334 10.780833333333334 0 0 1 9.379325 5.390416666666667 74.8728875 74.8728875 0 0 0 15.847825 16.925908333333336" fill="none" stroke="#ffffff" stroke-linecap="round" stroke-linejoin="round" stroke-width="5.63"></path><path d="m59.88752916666667 94.33229166666666 -1.1319875 -16.925908333333336" fill="none" stroke="#ffffff" stroke-linecap="round" stroke-linejoin="round" stroke-width="5.63"></path><path d="m70.50665000000001 78.96960416666667 -1.0241791666666666 15.362687500000002" fill="none" stroke="#ffffff" stroke-linecap="round" stroke-linejoin="round" stroke-width="5.63"></path><path d="m58.108691666666665 67.4341125 -3.5037708333333337 -53.90416666666667a10.3496 10.3496 0 0 1 2.6952083333333334 -7.6004875 10.1878875 10.1878875 0 0 1 14.769741666666668 0 10.3496 10.3496 0 0 1 2.6952083333333334 7.6004875l-3.5037708333333337 53.90416666666667" fill="none" stroke="#ffffff" stroke-linecap="round" stroke-linejoin="round" stroke-width="5.63"></path><path d="M44.25532083333334 100.4234625A10.780833333333334 10.780833333333334 0 0 1 37.73291666666667 91.63708333333334a9.109804166666667 9.109804166666667 0 0 1 3.827195833333333 -6.899733333333334" fill="none" stroke="#ffffff" stroke-linecap="round" stroke-linejoin="round" stroke-width="5.63"></path><path d="M91.63708333333334 73.30966666666667c6.684116666666667 -2.9108250000000004 10.780833333333334 -6.899733333333334 10.780833333333334 -11.319875000000001C102.41791666666667 48.51375 86.24666666666667 43.123333333333335 86.24666666666667 43.123333333333335" fill="none" stroke="#ffffff" stroke-linecap="round" stroke-linejoin="round" stroke-width="5.63"></path><path d="M43.123333333333335 43.123333333333335s-16.17125 5.390416666666667 -16.17125 18.866458333333334c0 22.585845833333337 64.685 8.840283333333334 64.685 29.647291666666668 0 19.189883333333334 -48.51375 7.492679166666666 -48.51375 24.256875 0 5.929458333333334 9.648845833333334 10.780833333333334 21.561666666666667 10.780833333333334 9.5410375 0 17.572758333333333 -3.0725374999999997 20.429679166666666 -7.330966666666668" fill="none" stroke="#ffffff" stroke-linecap="round" stroke-linejoin="round" stroke-width="5.63"></path><path d="M71.6386375 61.55855833333334a60.85780416666666 60.85780416666666 0 0 0 10.780833333333334 -2.263975" fill="none" stroke="#ffffff" stroke-linecap="round" stroke-linejoin="round" stroke-width="5.63"></path></g><path d="m64.685 59.24067916666667 0 10.888641666666667" fill="none" stroke="#ffffff" stroke-linecap="round" stroke-linejoin="round" stroke-width="5.63"></path></svg>