<svg xmlns="http://www.w3.org/2000/svg" viewBox="0 0 24 24" height="24" width="24" id="Phone--Streamline-Ultimate.svg"><desc>Phone Streamline Icon: https://streamlinehq.com</desc><defs></defs><path d="M9.086 7.4a2.315 2.315 0 0 0 0 -3.271L6.632 1.678a2.315 2.315 0 0 0 -3.272 0L2.016 3.024a3.463 3.463 0 0 0 -0.439 4.365 53.778 53.778 0 0 0 15.034 15.034 3.469 3.469 0 0 0 4.366 -0.437l1.345 -1.346a2.312 2.312 0 0 0 0 -3.271l-2.453 -2.453a2.312 2.312 0 0 0 -3.271 0l-0.818 0.818A54.879 54.879 0 0 1 8.268 8.22Z" fill="#cac531" stroke-width="1"></path><path d="m8.268 8.22 0.818 -0.82a2.315 2.315 0 0 0 0 -3.271L6.632 1.678a2.315 2.315 0 0 0 -3.272 0L2.016 3.024a3.463 3.463 0 0 0 -0.439 4.365A53.35 53.35 0 0 0 8.1 15.4l3.5 -3.5a53.835 53.835 0 0 1 -3.332 -3.68Z" fill="#cac531" stroke-width="1"></path><path d="M9.086 7.4a2.315 2.315 0 0 0 0 -3.271L6.632 1.678a2.313 2.313 0 0 0 -3.271 0L2.016 3.024a3.463 3.463 0 0 0 -0.439 4.365 53.778 53.778 0 0 0 15.034 15.034 3.469 3.469 0 0 0 4.366 -0.437l1.345 -1.346a2.312 2.312 0 0 0 0 -3.271l-2.453 -2.453a2.312 2.312 0 0 0 -3.271 0l-0.818 0.818A54.879 54.879 0 0 1 8.268 8.22Z" fill="none" stroke="#00303e" stroke-linecap="round" stroke-linejoin="round" stroke-width="1"></path></svg>