<svg viewBox="-1.405 -1.405 135 135" xmlns="http://www.w3.org/2000/svg" height="135" width="135" id="Shop-1--Streamline-Ultimate.svg"><desc>Shop 1 Streamline Icon: https://streamlinehq.com</desc><path d="M20.318704583333332 11.015833333333333a5.507916666666667 5.507916666666667 0 0 0 -5.144394166666667 3.5470983333333335L6.466294166666666 37.40977a11.015833333333333 11.015833333333333 0 0 0 -0.07711083333333334 7.628464583333333A15.152278749999999 15.152278749999999 0 0 0 35.80145833333333 39.93239583333333a15.146770833333333 15.146770833333333 0 0 0 30.293541666666666 0 15.146770833333333 15.146770833333333 0 0 0 30.293541666666666 0 15.152278749999999 15.152278749999999 0 0 0 29.412274999999998 5.10583875 10.982785833333333 10.982785833333333 0 0 0 -0.08261874999999999 -7.628464583333333l-8.702508333333334 -22.84683833333333A5.507916666666667 5.507916666666667 0 0 0 111.87129541666667 11.015833333333333Z" fill="none" stroke="#ffffff" stroke-linecap="round" stroke-linejoin="round" stroke-width="2.81"></path><path d="m27.302742916666666 71.60291666666666 38.555416666666666 0 0 33.0475 -38.555416666666666 0Z" fill="none" stroke="#ffffff" stroke-linecap="round" stroke-linejoin="round" stroke-width="2.81"></path><path d="M76.87399291666667 121.17416666666666v-46.81729166666666a2.7539583333333333 2.7539583333333333 0 0 1 2.7539583333333333 -2.7539583333333333h22.031666666666666a2.7539583333333333 2.7539583333333333 0 0 1 2.7539583333333333 2.7539583333333333V121.17416666666666" fill="none" stroke="#ffffff" stroke-linecap="round" stroke-linejoin="round" stroke-width="2.81"></path><path d="M115.42940958333334 54.57243833333333V115.66624999999999a5.507916666666667 5.507916666666667 0 0 1 -5.507916666666667 5.507916666666667h-88.12666666666667a5.507916666666667 5.507916666666667 0 0 1 -5.507916666666667 -5.507916666666667V54.44024833333334" fill="none" stroke="#ffffff" stroke-linecap="round" stroke-linejoin="round" stroke-width="2.81"></path></svg>