<svg viewBox="-2.815 -2.815 135 135" xmlns="http://www.w3.org/2000/svg" height="135" width="135" id="Warehouse-1--Streamline-Ultimate.svg"><desc>Warehouse 1 Streamline Icon: https://streamlinehq.com</desc><path d="M2.6952083333333334 26.952083333333334v10.780833333333334a2.6952083333333334 2.6952083333333334 0 0 0 2.6952083333333334 2.6952083333333334h118.58916666666667a2.6952083333333334 2.6952083333333334 0 0 0 2.6952083333333334 -2.6952083333333334V26.952083333333334C102.74134166666666 1.9082075 26.78498041666667 1.7518854166666669 2.6952083333333334 26.952083333333334Z" fill="none" stroke="#ffffff" stroke-linecap="round" stroke-linejoin="round" stroke-width="5.63"></path><path d="m8.085625 121.26281333333333 0 -80.85625" fill="none" stroke="#ffffff" stroke-linecap="round" stroke-linejoin="round" stroke-width="5.63"></path><path d="m121.28437500000001 40.40656333333334 0 80.85625" fill="none" stroke="#ffffff" stroke-linecap="round" stroke-linejoin="round" stroke-width="5.63"></path><path d="M24.256875 121.28437500000001v-59.294583333333335a5.390416666666667 5.390416666666667 0 0 1 5.390416666666667 -5.390416666666667h70.07541666666667a5.390416666666667 5.390416666666667 0 0 1 5.390416666666667 5.390416666666667v59.294583333333335" fill="none" stroke="#ffffff" stroke-linecap="round" stroke-linejoin="round" stroke-width="5.63"></path><path d="m24.256875 72.74906333333334 80.85625 0" fill="none" stroke="#ffffff" stroke-linecap="round" stroke-linejoin="round" stroke-width="5.63"></path><path d="m24.256875 88.92031333333333 80.85625 0" fill="none" stroke="#ffffff" stroke-linecap="round" stroke-linejoin="round" stroke-width="5.63"></path><path d="m24.256875 105.09156333333333 80.85625 0" fill="none" stroke="#ffffff" stroke-linecap="round" stroke-linejoin="round" stroke-width="5.63"></path><path d="m2.6952083333333334 121.26281333333333 123.97958333333334 0" fill="none" stroke="#ffffff" stroke-linecap="round" stroke-linejoin="round" stroke-width="5.63"></path><path d="m55.25177083333334 24.256875 18.866458333333334 0" fill="none" stroke="#ffffff" stroke-linecap="round" stroke-linejoin="round" stroke-width="5.63"></path></svg>